<?xml version="1.0" encoding="UTF-8" standalone="no"?>
<svg width="27px" height="28px" viewBox="0 0 27 28" version="1.1" xmlns="http://www.w3.org/2000/svg" xmlns:xlink="http://www.w3.org/1999/xlink">
    <!-- Generator: Sketch 3.6.1 (26313) - http://www.bohemiancoding.com/sketch -->
    <title>icon-shopping-cart</title>
    <desc>Created with Sketch.</desc>
    <defs></defs>
    <g id="Page-1" stroke="none" stroke-width="1" fill="none" fill-rule="evenodd">
        <g id="Mobile" transform="translate(-339.000000, -26.000000)" fill="#138FDD">
            <g id="header">
                <path d="M364.27084,29.70496 L345.29552,29.70496 C344.9612,26.96908 343.1258,26.07756 342.108,26.00252 L339.07,26 L339.07,27.79452 L341.98788,27.79452 C342.24576,27.83456 343.55896,28.15796 343.55896,30.60236 L343.55896,41.14716 L343.55896,43.82928 C343.55896,45.15088 344.20744,45.99956 344.999,46.52204 C344.10496,47.30268 343.536,48.44788 343.536,49.72496 C343.536,52.0722 345.44476,53.98124 347.79144,53.98124 C350.13812,53.98124 352.04716,52.0722 352.04716,49.72496 C352.04716,48.79536 351.74392,47.93688 351.23572,47.23548 L357.04544,47.23632 C356.5378,47.93744 356.23456,48.79564 356.23456,49.72496 C356.23456,52.0722 358.14332,53.98124 360.49,53.98124 C362.83668,53.98124 364.746,52.0722 364.746,49.72496 C364.746,47.38444 362.84536,45.47876 360.50596,45.47036 L360.50596,45.44236 L347.20456,45.44236 C346.97132,45.42136 345.35348,45.22368 345.35348,43.829 L345.35348,42.044 L362.4598,42.044 C364.33104,42.044 365.10328,40.45612 365.16656,39.38848 C365.1674,39.37084 365.16796,39.3532 365.16796,39.33584 L365.16796,30.60236 C365.16796,30.10676 364.76616,29.70496 364.27084,29.70496 L364.27084,29.70496 Z M347.79172,52.18644 C346.43456,52.18644 345.33052,51.0824 345.33052,49.72496 C345.33052,48.3678 346.43456,47.26376 347.79172,47.26376 C349.14888,47.26376 350.2532,48.3678 350.2532,49.72496 C350.2532,51.0824 349.14916,52.18644 347.79172,52.18644 L347.79172,52.18644 Z M362.95176,49.72496 C362.95176,51.0824 361.848,52.18644 360.49028,52.18644 C359.13312,52.18644 358.02936,51.0824 358.02936,49.72496 C358.02936,48.3678 359.13312,47.26376 360.49028,47.26376 C361.848,47.26376 362.95176,48.36808 362.95176,49.72496 L362.95176,49.72496 Z M363.37372,39.2986 C363.3446,39.6038 363.19536,40.24976 362.4598,40.24976 L345.35348,40.24976 L345.35348,31.49948 L363.37372,31.49948 L363.37372,39.2986 L363.37372,39.2986 Z" id="icon-shopping-cart"></path>
            </g>
        </g>
    </g>
</svg>