<?xml version="1.0" encoding="utf-8"?>
<!-- Generator: Adobe Illustrator 19.1.0, SVG Export Plug-In . SVG Version: 6.00 Build 0)  -->
<svg version="1.1" id="Layer_1" xmlns="http://www.w3.org/2000/svg" xmlns:xlink="http://www.w3.org/1999/xlink" x="0px" y="0px"
	 viewBox="0 0 246.2 49.9" style="enable-background:new 0 0 246.2 49.9;" xml:space="preserve">
<g>
	<path style="fill:#FFFFFF;" d="M15.9,20.5L22.5,0C18,0.4,13.8,1.9,10.3,4.3L15.9,20.5L15.9,20.5z"/>
	<path style="fill:#FFFFFF;" d="M31.8,1v28.9h-6.2V8.7h-0.1l-7.4,21.3h-5.1L5.8,8.9H5.7v21.1H0c2.3,11.4,12.4,20,24.5,20
		c13.8,0,25-11.2,25-25C49.5,13.6,42,4.1,31.8,1z"/>
</g>
<g>
	<path style="fill:#FFFFFF;" d="M68.3,10.4L75,30.1h0.1l6.3-19.6h8.8V39h-5.9V18.7h-0.1l-7,20.2h-4.8l-7-20h-0.1v20h-5.9V10.4H68.3z
		"/>
	<path style="fill:#FFFFFF;" d="M101.3,34c0.9,0.8,2.1,1.2,3.7,1.2c1.1,0,2.1-0.3,3-0.9c0.8-0.6,1.3-1.2,1.5-1.8h5
		c-0.8,2.5-2,4.3-3.7,5.3c-1.7,1.1-3.7,1.6-6,1.6c-1.6,0-3.1-0.3-4.4-0.8c-1.3-0.5-2.4-1.3-3.3-2.2c-0.9-1-1.6-2.1-2.1-3.4
		c-0.5-1.3-0.7-2.8-0.7-4.4c0-1.5,0.3-3,0.8-4.3c0.5-1.3,1.2-2.5,2.2-3.5c0.9-1,2-1.7,3.3-2.3c1.3-0.6,2.7-0.8,4.3-0.8
		c1.8,0,3.3,0.3,4.6,1c1.3,0.7,2.4,1.6,3.2,2.7c0.8,1.1,1.4,2.5,1.8,3.9c0.4,1.5,0.5,3,0.4,4.6H99.9C99.9,31.9,100.4,33.2,101.3,34z
		 M107.7,23.1c-0.7-0.7-1.7-1.1-3.1-1.1c-0.9,0-1.7,0.2-2.3,0.5c-0.6,0.3-1.1,0.7-1.4,1.1c-0.4,0.5-0.6,0.9-0.8,1.4
		c-0.1,0.5-0.2,1-0.3,1.4h9.2C108.8,25,108.4,23.9,107.7,23.1z"/>
	<path style="fill:#FFFFFF;" d="M129.5,18.3v3.8h-4.2v10.2c0,1,0.2,1.6,0.5,1.9c0.3,0.3,1,0.5,1.9,0.5c0.3,0,0.6,0,0.9,0
		c0.3,0,0.6-0.1,0.8-0.1V39c-0.5,0.1-1,0.1-1.6,0.2c-0.6,0-1.2,0-1.7,0c-0.9,0-1.7-0.1-2.5-0.2c-0.8-0.1-1.5-0.4-2.1-0.7
		s-1.1-0.8-1.4-1.5c-0.3-0.6-0.5-1.5-0.5-2.5V22.1h-3.4v-3.8h3.4v-6.2h5.7v6.2H129.5z"/>
	<path style="fill:#FFFFFF;" d="M137.6,18.3v3.8h0.1c0.3-0.6,0.6-1.2,1.1-1.8c0.5-0.5,1-1,1.6-1.4s1.2-0.7,1.9-0.9
		c0.7-0.2,1.4-0.3,2.1-0.3c0.4,0,0.8,0.1,1.2,0.2v5.3c-0.3-0.1-0.6-0.1-1-0.1c-0.4,0-0.7-0.1-1.1-0.1c-1,0-1.9,0.2-2.6,0.5
		c-0.7,0.3-1.3,0.8-1.7,1.4c-0.4,0.6-0.8,1.3-0.9,2.1c-0.2,0.8-0.3,1.7-0.3,2.6V39h-5.7V18.3H137.6z"/>
	<path style="fill:#FFFFFF;" d="M147.9,15.1v-4.7h5.7v4.7H147.9z M153.6,18.3V39h-5.7V18.3H153.6z"/>
	<path style="fill:#FFFFFF;" d="M163.6,18.3v2.8h0.1c0.7-1.1,1.6-1.9,2.7-2.5c1.1-0.6,2.3-0.9,3.6-0.9c1.3,0,2.5,0.3,3.6,0.8
		c1.1,0.5,1.9,1.4,2.5,2.7c0.6-0.9,1.4-1.7,2.5-2.4c1.1-0.7,2.3-1,3.7-1c1.1,0,2.1,0.1,3,0.4c0.9,0.3,1.7,0.7,2.4,1.3
		c0.7,0.6,1.2,1.4,1.6,2.3c0.4,0.9,0.6,2.1,0.6,3.4V39h-5.7V27.3c0-0.7,0-1.3-0.1-2c-0.1-0.6-0.2-1.1-0.4-1.6
		c-0.2-0.5-0.6-0.8-1.1-1.1c-0.5-0.3-1.1-0.4-1.9-0.4s-1.4,0.2-1.9,0.5c-0.5,0.3-0.9,0.7-1.2,1.2s-0.5,1.1-0.6,1.7
		c-0.1,0.6-0.1,1.3-0.1,1.9V39h-5.7V27.4c0-0.6,0-1.2,0-1.8c0-0.6-0.1-1.2-0.3-1.7c-0.2-0.5-0.5-0.9-1-1.2c-0.5-0.3-1.2-0.5-2.1-0.5
		c-0.3,0-0.6,0.1-1.1,0.2c-0.4,0.1-0.9,0.3-1.3,0.7c-0.4,0.3-0.8,0.8-1.1,1.4c-0.3,0.6-0.4,1.4-0.4,2.5v12h-5.7V18.3H163.6z"/>
	<path style="fill:#FFFFFF;" d="M194.1,24.7c0.1-1.3,0.4-2.4,1-3.3c0.6-0.9,1.3-1.6,2.2-2.1c0.9-0.5,1.9-0.9,3.1-1.1
		c1.1-0.2,2.3-0.3,3.4-0.3c1,0,2.1,0.1,3.2,0.2s2,0.4,2.9,0.9c0.9,0.4,1.6,1,2.2,1.8c0.6,0.8,0.8,1.8,0.8,3v10.8
		c0,0.9,0.1,1.8,0.2,2.7s0.3,1.5,0.6,1.9h-5.8c-0.1-0.3-0.2-0.6-0.3-1c-0.1-0.3-0.1-0.7-0.1-1c-0.9,0.9-2,1.6-3.2,2
		s-2.5,0.6-3.8,0.6c-1,0-1.9-0.1-2.8-0.4s-1.6-0.6-2.2-1.1c-0.6-0.5-1.1-1.1-1.5-1.9c-0.4-0.8-0.5-1.7-0.5-2.8
		c0-1.2,0.2-2.1,0.6-2.9c0.4-0.8,0.9-1.4,1.6-1.8c0.7-0.5,1.4-0.8,2.2-1s1.7-0.4,2.5-0.5c0.9-0.1,1.7-0.2,2.5-0.3
		c0.8-0.1,1.6-0.2,2.2-0.4c0.6-0.2,1.1-0.4,1.5-0.7c0.4-0.3,0.5-0.8,0.5-1.3c0-0.6-0.1-1.1-0.3-1.5c-0.2-0.4-0.5-0.6-0.8-0.8
		c-0.3-0.2-0.7-0.3-1.2-0.4c-0.4-0.1-0.9-0.1-1.4-0.1c-1.1,0-2,0.2-2.6,0.7c-0.6,0.5-1,1.3-1.1,2.4H194.1z M207.2,28.9
		c-0.2,0.2-0.5,0.4-0.9,0.5c-0.4,0.1-0.7,0.2-1.2,0.3c-0.4,0.1-0.8,0.1-1.3,0.2c-0.5,0.1-0.9,0.1-1.4,0.2c-0.4,0.1-0.8,0.2-1.3,0.3
		s-0.8,0.3-1.1,0.5c-0.3,0.2-0.6,0.5-0.7,0.9c-0.2,0.3-0.3,0.8-0.3,1.3c0,0.5,0.1,0.9,0.3,1.3c0.2,0.3,0.4,0.6,0.8,0.8
		s0.7,0.3,1.1,0.4c0.4,0.1,0.9,0.1,1.3,0.1c1.1,0,2-0.2,2.6-0.6c0.6-0.4,1.1-0.8,1.4-1.3c0.3-0.5,0.5-1,0.5-1.6
		c0.1-0.5,0.1-1,0.1-1.3V28.9z"/>
	<path style="fill:#FFFFFF;" d="M222.7,18.3v3.8h0.1c0.3-0.6,0.6-1.2,1.1-1.8c0.5-0.5,1-1,1.6-1.4c0.6-0.4,1.2-0.7,1.9-0.9
		c0.7-0.2,1.4-0.3,2.1-0.3c0.4,0,0.8,0.1,1.2,0.2v5.3c-0.3-0.1-0.6-0.1-1-0.1c-0.4,0-0.7-0.1-1.1-0.1c-1,0-1.9,0.2-2.6,0.5
		c-0.7,0.3-1.3,0.8-1.7,1.4c-0.4,0.6-0.8,1.3-0.9,2.1s-0.3,1.7-0.3,2.6V39h-5.7V18.3H222.7z"/>
	<path style="fill:#FFFFFF;" d="M246.2,18.3v3.8h-4.2v10.2c0,1,0.2,1.6,0.5,1.9c0.3,0.3,1,0.5,1.9,0.5c0.3,0,0.6,0,0.9,0
		c0.3,0,0.6-0.1,0.8-0.1V39c-0.5,0.1-1,0.1-1.6,0.2c-0.6,0-1.2,0-1.7,0c-0.9,0-1.7-0.1-2.5-0.2c-0.8-0.1-1.5-0.4-2.1-0.7
		c-0.6-0.3-1.1-0.8-1.4-1.5c-0.3-0.6-0.5-1.5-0.5-2.5V22.1h-3.4v-3.8h3.4v-6.2h5.7v6.2H246.2z"/>
</g>
</svg>
